{
	"asset":{
		"generator":"Khronos glTF Blender I/O v4.3.47",
		"version":"2.0"
	},
	"extensionsUsed":[
		"KHR_materials_transmission",
		"KHR_materials_ior"
	],
	"scene":0,
	"scenes":[
		{
			"extras":{
				"sna_animation_menu":{},
				"sky_settings":{},
				"clouds_settings":{},
				"uuid":"80c3f623-4ce6-4bc7-beef-279442447216",
				"assets reported":{}
			},
			"name":"Scene",
			"nodes":[
				6
			]
		}
	],
	"nodes":[
		{
			"mesh":0,
			"name":"Cylinder",
			"translation":[
				0,
				1.6485390663146973,
				0
			]
		},
		{
			"mesh":1,
			"name":"Cylinder.002",
			"translation":[
				0,
				1.5519938468933105,
				0
			]
		},
		{
			"mesh":2,
			"name":"Cylinder.003",
			"translation":[
				0,
				-0.15956950187683105,
				0
			]
		},
		{
			"children":[
				0,
				1,
				2
			],
			"mesh":3,
			"name":"Cylinder.001",
			"translation":[
				0,
				3.3778347969055176,
				0
			]
		},
		{
			"mesh":4,
			"name":"Text.001",
			"translation":[
				0.32582587003707886,
				0,
				-0.13002273440361023
			]
		},
		{
			"children":[
				4
			],
			"mesh":5,
			"name":"Text",
			"rotation":[
				0.49999988079071045,
				-0.5000001192092896,
				0.5,
				0.5
			],
			"translation":[
				-1.3676905632019043,
				1.17124605178833,
				0
			]
		},
		{
			"children":[
				3,
				5
			],
			"mesh":6,
			"name":"Cube"
		}
	],
	"materials":[
		{
			"doubleSided":true,
			"name":"Material.002",
			"pbrMetallicRoughness":{
				"baseColorFactor":[
					0.001158195547759533,
					0.0013384108897298574,
					0.0020000000949949026,
					1
				],
				"metallicFactor":0,
				"roughnessFactor":0.06727273017168045
			}
		},
		{
			"doubleSided":true,
			"name":"Material.005",
			"pbrMetallicRoughness":{
				"baseColorFactor":[
					0.800000011920929,
					0.800000011920929,
					0.800000011920929,
					1
				],
				"metallicFactor":0.918181836605072,
				"roughnessFactor":0.1409090906381607
			}
		},
		{
			"doubleSided":true,
			"name":"Material.007"
		},
		{
			"doubleSided":true,
			"name":"Material.004",
			"pbrMetallicRoughness":{
				"baseColorFactor":[
					0.800000011920929,
					0.800000011920929,
					0.800000011920929,
					1
				],
				"roughnessFactor":0.4500000476837158
			}
		},
		{
			"doubleSided":true,
			"name":"Material.008",
			"pbrMetallicRoughness":{
				"baseColorFactor":[
					0.6504594087600708,
					0.6504594087600708,
					0.6504594087600708,
					1
				],
				"metallicFactor":0
			}
		},
		{
			"doubleSided":true,
			"extensions":{
				"KHR_materials_transmission":{
					"transmissionFactor":0.9090908765792847
				},
				"KHR_materials_ior":{
					"ior":1.3339999914169312
				}
			},
			"name":"Material",
			"pbrMetallicRoughness":{
				"baseColorFactor":[
					0.22783654928207397,
					0.2377571165561676,
					0.23333436250686646,
					1
				],
				"metallicFactor":0,
				"roughnessFactor":0
			}
		}
	],
	"meshes":[
		{
			"name":"Cylinder",
			"primitives":[
				{
					"attributes":{
						"POSITION":0,
						"NORMAL":1,
						"TEXCOORD_0":2
					},
					"indices":3,
					"material":0
				},
				{
					"attributes":{
						"POSITION":4,
						"NORMAL":5,
						"TEXCOORD_0":6
					},
					"indices":7,
					"material":0
				},
				{
					"attributes":{
						"POSITION":8,
						"NORMAL":9,
						"TEXCOORD_0":10
					},
					"indices":11,
					"material":0
				},
				{
					"attributes":{
						"POSITION":12,
						"NORMAL":13,
						"TEXCOORD_0":14
					},
					"indices":15,
					"material":0
				}
			]
		},
		{
			"name":"Cylinder.002",
			"primitives":[
				{
					"attributes":{
						"POSITION":16,
						"NORMAL":17,
						"TEXCOORD_0":18
					},
					"indices":19,
					"material":1
				},
				{
					"attributes":{
						"POSITION":20,
						"NORMAL":21,
						"TEXCOORD_0":22
					},
					"indices":23,
					"material":1
				}
			]
		},
		{
			"name":"Cylinder.006",
			"primitives":[
				{
					"attributes":{
						"POSITION":24,
						"NORMAL":25,
						"TEXCOORD_0":26
					},
					"indices":27,
					"material":2
				}
			]
		},
		{
			"name":"Cylinder.001",
			"primitives":[
				{
					"attributes":{
						"POSITION":28,
						"NORMAL":29,
						"TEXCOORD_0":30
					},
					"indices":31,
					"material":3
				}
			]
		},
		{
			"name":"Text.001",
			"primitives":[
				{
					"attributes":{
						"POSITION":32,
						"NORMAL":33,
						"TEXCOORD_0":34
					},
					"indices":35
				}
			]
		},
		{
			"name":"Text",
			"primitives":[
				{
					"attributes":{
						"POSITION":36,
						"NORMAL":37,
						"TEXCOORD_0":38
					},
					"indices":39,
					"material":4
				}
			]
		},
		{
			"name":"Cube",
			"primitives":[
				{
					"attributes":{
						"POSITION":40,
						"NORMAL":41,
						"TEXCOORD_0":42
					},
					"indices":43,
					"material":5
				}
			]
		}
	],
	"accessors":[
		{
			"bufferView":0,
			"componentType":5126,
			"count":10276,
			"max":[
				1.10312020778656,
				0.9999332427978516,
				1.10312020778656
			],
			"min":[
				-1.10312020778656,
				-1.5168373584747314,
				-1.1031203269958496
			],
			"type":"VEC3"
		},
		{
			"bufferView":1,
			"componentType":5126,
			"count":10276,
			"type":"VEC3"
		},
		{
			"bufferView":2,
			"componentType":5126,
			"count":10276,
			"type":"VEC2"
		},
		{
			"bufferView":3,
			"componentType":5123,
			"count":43623,
			"type":"SCALAR"
		},
		{
			"bufferView":4,
			"componentType":5126,
			"count":1397,
			"max":[
				0.784186065196991,
				0.9993359446525574,
				0.784186065196991
			],
			"min":[
				-0.784186065196991,
				0.9643222093582153,
				-0.784186065196991
			],
			"type":"VEC3"
		},
		{
			"bufferView":5,
			"componentType":5126,
			"count":1397,
			"type":"VEC3"
		},
		{
			"bufferView":6,
			"componentType":5126,
			"count":1397,
			"type":"VEC2"
		},
		{
			"bufferView":7,
			"componentType":5123,
			"count":5343,
			"type":"SCALAR"
		},
		{
			"bufferView":8,
			"componentType":5126,
			"count":1005,
			"max":[
				0.5230809450149536,
				0.9998347759246826,
				0.4090440571308136
			],
			"min":[
				-0.1890440583229065,
				0.9806725382804871,
				-0.4090440571308136
			],
			"type":"VEC3"
		},
		{
			"bufferView":9,
			"componentType":5126,
			"count":1005,
			"type":"VEC3"
		},
		{
			"bufferView":10,
			"componentType":5126,
			"count":1005,
			"type":"VEC2"
		},
		{
			"bufferView":11,
			"componentType":5123,
			"count":3804,
			"type":"SCALAR"
		},
		{
			"bufferView":12,
			"componentType":5126,
			"count":1118,
			"max":[
				0.1890440583229065,
				0.9998347759246826,
				0.4090440571308136
			],
			"min":[
				-0.5230809450149536,
				0.9806725382804871,
				-0.4090440571308136
			],
			"type":"VEC3"
		},
		{
			"bufferView":13,
			"componentType":5126,
			"count":1118,
			"type":"VEC3"
		},
		{
			"bufferView":14,
			"componentType":5126,
			"count":1118,
			"type":"VEC2"
		},
		{
			"bufferView":15,
			"componentType":5123,
			"count":4494,
			"type":"SCALAR"
		},
		{
			"bufferView":16,
			"componentType":5126,
			"count":12452,
			"max":[
				0.5379078984260559,
				0.48450034856796265,
				0.5379078984260559
			],
			"min":[
				-0.5379078984260559,
				-0.7349089980125427,
				-0.5379078984260559
			],
			"type":"VEC3"
		},
		{
			"bufferView":17,
			"componentType":5126,
			"count":12452,
			"type":"VEC3"
		},
		{
			"bufferView":18,
			"componentType":5126,
			"count":12452,
			"type":"VEC2"
		},
		{
			"bufferView":19,
			"componentType":5123,
			"count":63384,
			"type":"SCALAR"
		},
		{
			"bufferView":20,
			"componentType":5126,
			"count":9855,
			"max":[
				-0.3032471835613251,
				0.3422586917877197,
				0.1172933429479599
			],
			"min":[
				-0.5379078984260559,
				0.10767202824354172,
				-0.1172933503985405
			],
			"type":"VEC3"
		},
		{
			"bufferView":21,
			"componentType":5126,
			"count":9855,
			"type":"VEC3"
		},
		{
			"bufferView":22,
			"componentType":5126,
			"count":9855,
			"type":"VEC2"
		},
		{
			"bufferView":23,
			"componentType":5123,
			"count":14844,
			"type":"SCALAR"
		},
		{
			"bufferView":24,
			"componentType":5126,
			"count":18168,
			"max":[
				0.22667290270328522,
				0.17288891971111298,
				0.2266729176044464
			],
			"min":[
				-0.22667290270328522,
				-5.57431173324585,
				-2.6230573654174805
			],
			"type":"VEC3"
		},
		{
			"bufferView":25,
			"componentType":5126,
			"count":18168,
			"type":"VEC3"
		},
		{
			"bufferView":26,
			"componentType":5126,
			"count":18168,
			"type":"VEC2"
		},
		{
			"bufferView":27,
			"componentType":5123,
			"count":27264,
			"type":"SCALAR"
		},
		{
			"bufferView":28,
			"componentType":5126,
			"count":8060,
			"max":[
				1.045377254486084,
				1.3111213445663452,
				1.045377254486084
			],
			"min":[
				-1.045377254486084,
				-0.0031573923770338297,
				-1.045377254486084
			],
			"type":"VEC3"
		},
		{
			"bufferView":29,
			"componentType":5126,
			"count":8060,
			"type":"VEC3"
		},
		{
			"bufferView":30,
			"componentType":5126,
			"count":8060,
			"type":"VEC2"
		},
		{
			"bufferView":31,
			"componentType":5123,
			"count":40704,
			"type":"SCALAR"
		},
		{
			"bufferView":32,
			"componentType":5126,
			"count":66,
			"max":[
				-0.11200224608182907,
				0,
				0.3023996949195862
			],
			"min":[
				-0.5015173554420471,
				0,
				0.07039158791303635
			],
			"type":"VEC3"
		},
		{
			"bufferView":33,
			"componentType":5126,
			"count":66,
			"type":"VEC3"
		},
		{
			"bufferView":34,
			"componentType":5126,
			"count":66,
			"type":"VEC2"
		},
		{
			"bufferView":35,
			"componentType":5123,
			"count":192,
			"type":"SCALAR"
		},
		{
			"bufferView":36,
			"componentType":5126,
			"count":417,
			"max":[
				1.5448766946792603,
				0,
				0.6769947409629822
			],
			"min":[
				-1.5193800926208496,
				0,
				-0.7259746193885803
			],
			"type":"VEC3"
		},
		{
			"bufferView":37,
			"componentType":5126,
			"count":417,
			"type":"VEC3"
		},
		{
			"bufferView":38,
			"componentType":5126,
			"count":417,
			"type":"VEC2"
		},
		{
			"bufferView":39,
			"componentType":5123,
			"count":1209,
			"type":"SCALAR"
		},
		{
			"bufferView":40,
			"componentType":5126,
			"count":8740,
			"max":[
				1.3607385158538818,
				3.3751602172851562,
				3.3751602172851562
			],
			"min":[
				-1.3634470701217651,
				-3.2569591999053955,
				-3.3751602172851562
			],
			"type":"VEC3"
		},
		{
			"bufferView":41,
			"componentType":5126,
			"count":8740,
			"type":"VEC3"
		},
		{
			"bufferView":42,
			"componentType":5126,
			"count":8740,
			"type":"VEC2"
		},
		{
			"bufferView":43,
			"componentType":5123,
			"count":14664,
			"type":"SCALAR"
		}
	],
	"bufferViews":[
		{
			"buffer":0,
			"byteLength":123312,
			"byteOffset":0,
			"target":34962
		},
		{
			"buffer":0,
			"byteLength":123312,
			"byteOffset":123312,
			"target":34962
		},
		{
			"buffer":0,
			"byteLength":82208,
			"byteOffset":246624,
			"target":34962
		},
		{
			"buffer":0,
			"byteLength":87246,
			"byteOffset":328832,
			"target":34963
		},
		{
			"buffer":0,
			"byteLength":16764,
			"byteOffset":416080,
			"target":34962
		},
		{
			"buffer":0,
			"byteLength":16764,
			"byteOffset":432844,
			"target":34962
		},
		{
			"buffer":0,
			"byteLength":11176,
			"byteOffset":449608,
			"target":34962
		},
		{
			"buffer":0,
			"byteLength":10686,
			"byteOffset":460784,
			"target":34963
		},
		{
			"buffer":0,
			"byteLength":12060,
			"byteOffset":471472,
			"target":34962
		},
		{
			"buffer":0,
			"byteLength":12060,
			"byteOffset":483532,
			"target":34962
		},
		{
			"buffer":0,
			"byteLength":8040,
			"byteOffset":495592,
			"target":34962
		},
		{
			"buffer":0,
			"byteLength":7608,
			"byteOffset":503632,
			"target":34963
		},
		{
			"buffer":0,
			"byteLength":13416,
			"byteOffset":511240,
			"target":34962
		},
		{
			"buffer":0,
			"byteLength":13416,
			"byteOffset":524656,
			"target":34962
		},
		{
			"buffer":0,
			"byteLength":8944,
			"byteOffset":538072,
			"target":34962
		},
		{
			"buffer":0,
			"byteLength":8988,
			"byteOffset":547016,
			"target":34963
		},
		{
			"buffer":0,
			"byteLength":149424,
			"byteOffset":556004,
			"target":34962
		},
		{
			"buffer":0,
			"byteLength":149424,
			"byteOffset":705428,
			"target":34962
		},
		{
			"buffer":0,
			"byteLength":99616,
			"byteOffset":854852,
			"target":34962
		},
		{
			"buffer":0,
			"byteLength":126768,
			"byteOffset":954468,
			"target":34963
		},
		{
			"buffer":0,
			"byteLength":118260,
			"byteOffset":1081236,
			"target":34962
		},
		{
			"buffer":0,
			"byteLength":118260,
			"byteOffset":1199496,
			"target":34962
		},
		{
			"buffer":0,
			"byteLength":78840,
			"byteOffset":1317756,
			"target":34962
		},
		{
			"buffer":0,
			"byteLength":29688,
			"byteOffset":1396596,
			"target":34963
		},
		{
			"buffer":0,
			"byteLength":218016,
			"byteOffset":1426284,
			"target":34962
		},
		{
			"buffer":0,
			"byteLength":218016,
			"byteOffset":1644300,
			"target":34962
		},
		{
			"buffer":0,
			"byteLength":145344,
			"byteOffset":1862316,
			"target":34962
		},
		{
			"buffer":0,
			"byteLength":54528,
			"byteOffset":2007660,
			"target":34963
		},
		{
			"buffer":0,
			"byteLength":96720,
			"byteOffset":2062188,
			"target":34962
		},
		{
			"buffer":0,
			"byteLength":96720,
			"byteOffset":2158908,
			"target":34962
		},
		{
			"buffer":0,
			"byteLength":64480,
			"byteOffset":2255628,
			"target":34962
		},
		{
			"buffer":0,
			"byteLength":81408,
			"byteOffset":2320108,
			"target":34963
		},
		{
			"buffer":0,
			"byteLength":792,
			"byteOffset":2401516,
			"target":34962
		},
		{
			"buffer":0,
			"byteLength":792,
			"byteOffset":2402308,
			"target":34962
		},
		{
			"buffer":0,
			"byteLength":528,
			"byteOffset":2403100,
			"target":34962
		},
		{
			"buffer":0,
			"byteLength":384,
			"byteOffset":2403628,
			"target":34963
		},
		{
			"buffer":0,
			"byteLength":5004,
			"byteOffset":2404012,
			"target":34962
		},
		{
			"buffer":0,
			"byteLength":5004,
			"byteOffset":2409016,
			"target":34962
		},
		{
			"buffer":0,
			"byteLength":3336,
			"byteOffset":2414020,
			"target":34962
		},
		{
			"buffer":0,
			"byteLength":2418,
			"byteOffset":2417356,
			"target":34963
		},
		{
			"buffer":0,
			"byteLength":104880,
			"byteOffset":2419776,
			"target":34962
		},
		{
			"buffer":0,
			"byteLength":104880,
			"byteOffset":2524656,
			"target":34962
		},
		{
			"buffer":0,
			"byteLength":69920,
			"byteOffset":2629536,
			"target":34962
		},
		{
			"buffer":0,
			"byteLength":29328,
			"byteOffset":2699456,
			"target":34963
		}
	],
	"buffers":[
		{
			"byteLength":2728784,
			"uri":"chanelperfume.bin"
		}
	]
}
