{
	"asset":{
		"generator":"Khronos glTF Blender I/O v4.3.47",
		"version":"2.0"
	},
	"extensionsUsed":[
		"KHR_materials_transmission",
		"KHR_materials_ior"
	],
	"scene":0,
	"scenes":[
		{
			"name":"Scene",
			"nodes":[
				7,
				8
			]
		}
	],
	"nodes":[
		{
			"mesh":0,
			"name":"Circle.002",
			"translation":[
				0.2199999988079071,
				0.9920921325683594,
				0
			]
		},
		{
			"children":[
				0
			],
			"mesh":1,
			"name":"Cylinder",
			"translation":[
				0,
				1.6485390663146973,
				0
			]
		},
		{
			"mesh":2,
			"name":"Cylinder.004",
			"rotation":[
				0,
				0,
				-0.7071068286895752,
				0.7071068286895752
			],
			"translation":[
				-0.3949059545993805,
				0.22496557235717773,
				0
			]
		},
		{
			"children":[
				2
			],
			"mesh":3,
			"name":"Cylinder.002",
			"translation":[
				0,
				1.5519938468933105,
				0
			]
		},
		{
			"mesh":4,
			"name":"Cylinder.003",
			"translation":[
				0,
				-0.15956950187683105,
				0
			]
		},
		{
			"children":[
				1,
				3,
				4
			],
			"mesh":5,
			"name":"Cylinder.001",
			"translation":[
				0,
				3.3778347969055176,
				0
			]
		},
		{
			"mesh":6,
			"name":"Text",
			"rotation":[
				0.49999988079071045,
				-0.5000001192092896,
				0.5,
				0.5
			],
			"translation":[
				-1.3676905632019043,
				1.17124605178833,
				0
			]
		},
		{
			"children":[
				5,
				6
			],
			"mesh":7,
			"name":"Cube"
		},
		{
			"mesh":8,
			"name":"interior_cube"
		}
	],
	"materials":[
		{
			"doubleSided":true,
			"name":"Material.003",
			"pbrMetallicRoughness":{
				"metallicFactor":0,
				"roughnessFactor":0.5
			}
		},
		{
			"doubleSided":true,
			"name":"Material.002",
			"pbrMetallicRoughness":{
				"baseColorFactor":[
					0.001158195547759533,
					0.0013384108897298574,
					0.0020000000949949026,
					1
				],
				"metallicFactor":0,
				"roughnessFactor":0.06727273017168045
			}
		},
		{
			"doubleSided":true,
			"name":"Material.006",
			"pbrMetallicRoughness":{
				"baseColorFactor":[
					0.746848464012146,
					0.746848464012146,
					0.746848464012146,
					1
				],
				"metallicFactor":0,
				"roughnessFactor":0.5
			}
		},
		{
			"doubleSided":true,
			"name":"Material.005",
			"pbrMetallicRoughness":{
				"baseColorFactor":[
					0.800000011920929,
					0.800000011920929,
					0.800000011920929,
					1
				],
				"metallicFactor":0.918181836605072,
				"roughnessFactor":0.1409090906381607
			}
		},
		{
			"doubleSided":true,
			"name":"Material.007"
		},
		{
			"doubleSided":true,
			"name":"Material.004",
			"pbrMetallicRoughness":{
				"baseColorFactor":[
					0.800000011920929,
					0.800000011920929,
					0.800000011920929,
					1
				],
				"roughnessFactor":0.4500000476837158
			}
		},
		{
			"alphaMode":"BLEND",
			"doubleSided":true,
			"name":"Material.008",
			"pbrMetallicRoughness":{
				"baseColorFactor":[
					0.6504594087600708,
					0.6504594087600708,
					0.6504594087600708,
					0.9522727131843567
				],
				"metallicFactor":0
			}
		},
		{
			"doubleSided":true,
			"extensions":{
				"KHR_materials_transmission":{
					"transmissionFactor":0.9090908765792847
				},
				"KHR_materials_ior":{
					"ior":1.3339999914169312
				}
			},
			"name":"Material",
			"pbrMetallicRoughness":{
				"baseColorFactor":[
					0.22783654928207397,
					0.2377571165561676,
					0.23333436250686646,
					1
				],
				"metallicFactor":0,
				"roughnessFactor":0
			}
		}
	],
	"meshes":[
		{
			"name":"Circle.002",
			"primitives":[
				{
					"attributes":{
						"POSITION":0,
						"NORMAL":1,
						"TEXCOORD_0":2
					},
					"indices":3,
					"material":0
				}
			]
		},
		{
			"name":"Cylinder",
			"primitives":[
				{
					"attributes":{
						"POSITION":4,
						"NORMAL":5,
						"TEXCOORD_0":6
					},
					"indices":7,
					"material":1
				},
				{
					"attributes":{
						"POSITION":8,
						"NORMAL":9,
						"TEXCOORD_0":10
					},
					"indices":11,
					"material":1
				},
				{
					"attributes":{
						"POSITION":12,
						"NORMAL":13,
						"TEXCOORD_0":14
					},
					"indices":15,
					"material":1
				},
				{
					"attributes":{
						"POSITION":16,
						"NORMAL":17,
						"TEXCOORD_0":18
					},
					"indices":19,
					"material":1
				}
			]
		},
		{
			"name":"Cylinder.004",
			"primitives":[
				{
					"attributes":{
						"POSITION":20,
						"NORMAL":21,
						"TEXCOORD_0":22
					},
					"indices":23,
					"material":2
				},
				{
					"attributes":{
						"POSITION":24,
						"NORMAL":25,
						"TEXCOORD_0":26
					},
					"indices":27,
					"material":2
				}
			]
		},
		{
			"name":"Cylinder.002",
			"primitives":[
				{
					"attributes":{
						"POSITION":28,
						"NORMAL":29,
						"TEXCOORD_0":30
					},
					"indices":31,
					"material":3
				},
				{
					"attributes":{
						"POSITION":32,
						"NORMAL":33,
						"TEXCOORD_0":34
					},
					"indices":35,
					"material":3
				}
			]
		},
		{
			"name":"Cylinder.006",
			"primitives":[
				{
					"attributes":{
						"POSITION":36,
						"NORMAL":37,
						"TEXCOORD_0":38
					},
					"indices":39,
					"material":4
				}
			]
		},
		{
			"name":"Cylinder.001",
			"primitives":[
				{
					"attributes":{
						"POSITION":40,
						"NORMAL":41,
						"TEXCOORD_0":42
					},
					"indices":43,
					"material":5
				}
			]
		},
		{
			"name":"Text",
			"primitives":[
				{
					"attributes":{
						"POSITION":44,
						"NORMAL":45,
						"TEXCOORD_0":46
					},
					"indices":47,
					"material":6
				}
			]
		},
		{
			"name":"Cube",
			"primitives":[
				{
					"attributes":{
						"POSITION":48,
						"NORMAL":49,
						"TEXCOORD_0":50
					},
					"indices":51,
					"material":7
				}
			]
		},
		{
			"name":"Cube.001",
			"primitives":[
				{
					"attributes":{
						"POSITION":52,
						"NORMAL":53,
						"TEXCOORD_0":54
					},
					"indices":55
				}
			]
		}
	],
	"accessors":[
		{
			"bufferView":0,
			"componentType":5126,
			"count":5892,
			"max":[
				0.5641860365867615,
				0.0010305995820090175,
				0.784186065196991
			],
			"min":[
				-1.0041861534118652,
				-0.06210869923233986,
				-0.784186065196991
			],
			"type":"VEC3"
		},
		{
			"bufferView":1,
			"componentType":5126,
			"count":5892,
			"type":"VEC3"
		},
		{
			"bufferView":2,
			"componentType":5126,
			"count":5892,
			"type":"VEC2"
		},
		{
			"bufferView":3,
			"componentType":5123,
			"count":19536,
			"type":"SCALAR"
		},
		{
			"bufferView":4,
			"componentType":5126,
			"count":8858,
			"max":[
				1.10312020778656,
				0.9999332427978516,
				1.10312020778656
			],
			"min":[
				-1.10312020778656,
				-1.5168373584747314,
				-1.1031203269958496
			],
			"type":"VEC3"
		},
		{
			"bufferView":5,
			"componentType":5126,
			"count":8858,
			"type":"VEC3"
		},
		{
			"bufferView":6,
			"componentType":5126,
			"count":8858,
			"type":"VEC2"
		},
		{
			"bufferView":7,
			"componentType":5123,
			"count":43623,
			"type":"SCALAR"
		},
		{
			"bufferView":8,
			"componentType":5126,
			"count":1141,
			"max":[
				0.784186065196991,
				0.9993359446525574,
				0.784186065196991
			],
			"min":[
				-0.784186065196991,
				0.9643222093582153,
				-0.784186065196991
			],
			"type":"VEC3"
		},
		{
			"bufferView":9,
			"componentType":5126,
			"count":1141,
			"type":"VEC3"
		},
		{
			"bufferView":10,
			"componentType":5126,
			"count":1141,
			"type":"VEC2"
		},
		{
			"bufferView":11,
			"componentType":5123,
			"count":5343,
			"type":"SCALAR"
		},
		{
			"bufferView":12,
			"componentType":5126,
			"count":787,
			"max":[
				0.5230809450149536,
				0.9998347759246826,
				0.4090440571308136
			],
			"min":[
				-0.1890440583229065,
				0.9806725382804871,
				-0.4090440571308136
			],
			"type":"VEC3"
		},
		{
			"bufferView":13,
			"componentType":5126,
			"count":787,
			"type":"VEC3"
		},
		{
			"bufferView":14,
			"componentType":5126,
			"count":787,
			"type":"VEC2"
		},
		{
			"bufferView":15,
			"componentType":5123,
			"count":3804,
			"type":"SCALAR"
		},
		{
			"bufferView":16,
			"componentType":5126,
			"count":900,
			"max":[
				0.1890440583229065,
				0.9998347759246826,
				0.4090440571308136
			],
			"min":[
				-0.5230809450149536,
				0.9806725382804871,
				-0.4090440571308136
			],
			"type":"VEC3"
		},
		{
			"bufferView":17,
			"componentType":5126,
			"count":900,
			"type":"VEC3"
		},
		{
			"bufferView":18,
			"componentType":5126,
			"count":900,
			"type":"VEC2"
		},
		{
			"bufferView":19,
			"componentType":5123,
			"count":4494,
			"type":"SCALAR"
		},
		{
			"bufferView":20,
			"componentType":5126,
			"count":4200,
			"max":[
				0.11954788118600845,
				0.11805291473865509,
				0.11954833567142487
			],
			"min":[
				-0.11954879760742188,
				-0.1277552843093872,
				-0.11954835057258606
			],
			"type":"VEC3"
		},
		{
			"bufferView":21,
			"componentType":5126,
			"count":4200,
			"type":"VEC3"
		},
		{
			"bufferView":22,
			"componentType":5126,
			"count":4200,
			"type":"VEC2"
		},
		{
			"bufferView":23,
			"componentType":5123,
			"count":23310,
			"type":"SCALAR"
		},
		{
			"bufferView":24,
			"componentType":5126,
			"count":218,
			"max":[
				0.002124225487932563,
				-0.09867218136787415,
				0.0019345588516443968
			],
			"min":[
				-0.00212514353916049,
				-0.11860617250204086,
				-0.0019345588516443968
			],
			"type":"VEC3"
		},
		{
			"bufferView":25,
			"componentType":5126,
			"count":218,
			"type":"VEC3"
		},
		{
			"bufferView":26,
			"componentType":5126,
			"count":218,
			"type":"VEC2"
		},
		{
			"bufferView":27,
			"componentType":5123,
			"count":456,
			"type":"SCALAR"
		},
		{
			"bufferView":28,
			"componentType":5126,
			"count":12452,
			"max":[
				0.5379078984260559,
				0.48450034856796265,
				0.5379078984260559
			],
			"min":[
				-0.5379078984260559,
				-0.7349089980125427,
				-0.5379078984260559
			],
			"type":"VEC3"
		},
		{
			"bufferView":29,
			"componentType":5126,
			"count":12452,
			"type":"VEC3"
		},
		{
			"bufferView":30,
			"componentType":5126,
			"count":12452,
			"type":"VEC2"
		},
		{
			"bufferView":31,
			"componentType":5123,
			"count":63384,
			"type":"SCALAR"
		},
		{
			"bufferView":32,
			"componentType":5126,
			"count":9855,
			"max":[
				-0.3032471835613251,
				0.3422586917877197,
				0.1172933429479599
			],
			"min":[
				-0.5379078984260559,
				0.10767202824354172,
				-0.1172933503985405
			],
			"type":"VEC3"
		},
		{
			"bufferView":33,
			"componentType":5126,
			"count":9855,
			"type":"VEC3"
		},
		{
			"bufferView":34,
			"componentType":5126,
			"count":9855,
			"type":"VEC2"
		},
		{
			"bufferView":35,
			"componentType":5123,
			"count":14844,
			"type":"SCALAR"
		},
		{
			"bufferView":36,
			"componentType":5126,
			"count":18168,
			"max":[
				0.22667290270328522,
				0.17288891971111298,
				0.2266729176044464
			],
			"min":[
				-0.22667290270328522,
				-5.57431173324585,
				-2.6230573654174805
			],
			"type":"VEC3"
		},
		{
			"bufferView":37,
			"componentType":5126,
			"count":18168,
			"type":"VEC3"
		},
		{
			"bufferView":38,
			"componentType":5126,
			"count":18168,
			"type":"VEC2"
		},
		{
			"bufferView":39,
			"componentType":5123,
			"count":27264,
			"type":"SCALAR"
		},
		{
			"bufferView":40,
			"componentType":5126,
			"count":329,
			"max":[
				1.0521159172058105,
				1.3303513526916504,
				1.0521159172058105
			],
			"min":[
				-1.0521159172058105,
				-0.003627993166446686,
				-1.0521159172058105
			],
			"type":"VEC3"
		},
		{
			"bufferView":41,
			"componentType":5126,
			"count":329,
			"type":"VEC3"
		},
		{
			"bufferView":42,
			"componentType":5126,
			"count":329,
			"type":"VEC2"
		},
		{
			"bufferView":43,
			"componentType":5123,
			"count":1626,
			"type":"SCALAR"
		},
		{
			"bufferView":44,
			"componentType":5126,
			"count":713,
			"max":[
				2.209123134613037,
				0,
				0.6769947409629822
			],
			"min":[
				-2.1963748931884766,
				0,
				-0.7259746193885803
			],
			"type":"VEC3"
		},
		{
			"bufferView":45,
			"componentType":5126,
			"count":713,
			"type":"VEC3"
		},
		{
			"bufferView":46,
			"componentType":5126,
			"count":713,
			"type":"VEC2"
		},
		{
			"bufferView":47,
			"componentType":5123,
			"count":2091,
			"type":"SCALAR"
		},
		{
			"bufferView":48,
			"componentType":5126,
			"count":2016,
			"max":[
				1.3607385158538818,
				3.3751602172851562,
				3.3751602172851562
			],
			"min":[
				-1.3634470701217651,
				-3.2569591999053955,
				-3.3751602172851562
			],
			"type":"VEC3"
		},
		{
			"bufferView":49,
			"componentType":5126,
			"count":2016,
			"type":"VEC3"
		},
		{
			"bufferView":50,
			"componentType":5126,
			"count":2016,
			"type":"VEC2"
		},
		{
			"bufferView":51,
			"componentType":5123,
			"count":3012,
			"type":"SCALAR"
		},
		{
			"bufferView":52,
			"componentType":5126,
			"count":6724,
			"max":[
				1.1293399333953857,
				2.8702805042266846,
				2.8702805042266846
			],
			"min":[
				-1.1277198791503906,
				-2.6112375259399414,
				-2.8702805042266846
			],
			"type":"VEC3"
		},
		{
			"bufferView":53,
			"componentType":5126,
			"count":6724,
			"type":"VEC3"
		},
		{
			"bufferView":54,
			"componentType":5126,
			"count":6724,
			"type":"VEC2"
		},
		{
			"bufferView":55,
			"componentType":5123,
			"count":11652,
			"type":"SCALAR"
		}
	],
	"bufferViews":[
		{
			"buffer":0,
			"byteLength":70704,
			"byteOffset":0,
			"target":34962
		},
		{
			"buffer":0,
			"byteLength":70704,
			"byteOffset":70704,
			"target":34962
		},
		{
			"buffer":0,
			"byteLength":47136,
			"byteOffset":141408,
			"target":34962
		},
		{
			"buffer":0,
			"byteLength":39072,
			"byteOffset":188544,
			"target":34963
		},
		{
			"buffer":0,
			"byteLength":106296,
			"byteOffset":227616,
			"target":34962
		},
		{
			"buffer":0,
			"byteLength":106296,
			"byteOffset":333912,
			"target":34962
		},
		{
			"buffer":0,
			"byteLength":70864,
			"byteOffset":440208,
			"target":34962
		},
		{
			"buffer":0,
			"byteLength":87246,
			"byteOffset":511072,
			"target":34963
		},
		{
			"buffer":0,
			"byteLength":13692,
			"byteOffset":598320,
			"target":34962
		},
		{
			"buffer":0,
			"byteLength":13692,
			"byteOffset":612012,
			"target":34962
		},
		{
			"buffer":0,
			"byteLength":9128,
			"byteOffset":625704,
			"target":34962
		},
		{
			"buffer":0,
			"byteLength":10686,
			"byteOffset":634832,
			"target":34963
		},
		{
			"buffer":0,
			"byteLength":9444,
			"byteOffset":645520,
			"target":34962
		},
		{
			"buffer":0,
			"byteLength":9444,
			"byteOffset":654964,
			"target":34962
		},
		{
			"buffer":0,
			"byteLength":6296,
			"byteOffset":664408,
			"target":34962
		},
		{
			"buffer":0,
			"byteLength":7608,
			"byteOffset":670704,
			"target":34963
		},
		{
			"buffer":0,
			"byteLength":10800,
			"byteOffset":678312,
			"target":34962
		},
		{
			"buffer":0,
			"byteLength":10800,
			"byteOffset":689112,
			"target":34962
		},
		{
			"buffer":0,
			"byteLength":7200,
			"byteOffset":699912,
			"target":34962
		},
		{
			"buffer":0,
			"byteLength":8988,
			"byteOffset":707112,
			"target":34963
		},
		{
			"buffer":0,
			"byteLength":50400,
			"byteOffset":716100,
			"target":34962
		},
		{
			"buffer":0,
			"byteLength":50400,
			"byteOffset":766500,
			"target":34962
		},
		{
			"buffer":0,
			"byteLength":33600,
			"byteOffset":816900,
			"target":34962
		},
		{
			"buffer":0,
			"byteLength":46620,
			"byteOffset":850500,
			"target":34963
		},
		{
			"buffer":0,
			"byteLength":2616,
			"byteOffset":897120,
			"target":34962
		},
		{
			"buffer":0,
			"byteLength":2616,
			"byteOffset":899736,
			"target":34962
		},
		{
			"buffer":0,
			"byteLength":1744,
			"byteOffset":902352,
			"target":34962
		},
		{
			"buffer":0,
			"byteLength":912,
			"byteOffset":904096,
			"target":34963
		},
		{
			"buffer":0,
			"byteLength":149424,
			"byteOffset":905008,
			"target":34962
		},
		{
			"buffer":0,
			"byteLength":149424,
			"byteOffset":1054432,
			"target":34962
		},
		{
			"buffer":0,
			"byteLength":99616,
			"byteOffset":1203856,
			"target":34962
		},
		{
			"buffer":0,
			"byteLength":126768,
			"byteOffset":1303472,
			"target":34963
		},
		{
			"buffer":0,
			"byteLength":118260,
			"byteOffset":1430240,
			"target":34962
		},
		{
			"buffer":0,
			"byteLength":118260,
			"byteOffset":1548500,
			"target":34962
		},
		{
			"buffer":0,
			"byteLength":78840,
			"byteOffset":1666760,
			"target":34962
		},
		{
			"buffer":0,
			"byteLength":29688,
			"byteOffset":1745600,
			"target":34963
		},
		{
			"buffer":0,
			"byteLength":218016,
			"byteOffset":1775288,
			"target":34962
		},
		{
			"buffer":0,
			"byteLength":218016,
			"byteOffset":1993304,
			"target":34962
		},
		{
			"buffer":0,
			"byteLength":145344,
			"byteOffset":2211320,
			"target":34962
		},
		{
			"buffer":0,
			"byteLength":54528,
			"byteOffset":2356664,
			"target":34963
		},
		{
			"buffer":0,
			"byteLength":3948,
			"byteOffset":2411192,
			"target":34962
		},
		{
			"buffer":0,
			"byteLength":3948,
			"byteOffset":2415140,
			"target":34962
		},
		{
			"buffer":0,
			"byteLength":2632,
			"byteOffset":2419088,
			"target":34962
		},
		{
			"buffer":0,
			"byteLength":3252,
			"byteOffset":2421720,
			"target":34963
		},
		{
			"buffer":0,
			"byteLength":8556,
			"byteOffset":2424972,
			"target":34962
		},
		{
			"buffer":0,
			"byteLength":8556,
			"byteOffset":2433528,
			"target":34962
		},
		{
			"buffer":0,
			"byteLength":5704,
			"byteOffset":2442084,
			"target":34962
		},
		{
			"buffer":0,
			"byteLength":4182,
			"byteOffset":2447788,
			"target":34963
		},
		{
			"buffer":0,
			"byteLength":24192,
			"byteOffset":2451972,
			"target":34962
		},
		{
			"buffer":0,
			"byteLength":24192,
			"byteOffset":2476164,
			"target":34962
		},
		{
			"buffer":0,
			"byteLength":16128,
			"byteOffset":2500356,
			"target":34962
		},
		{
			"buffer":0,
			"byteLength":6024,
			"byteOffset":2516484,
			"target":34963
		},
		{
			"buffer":0,
			"byteLength":80688,
			"byteOffset":2522508,
			"target":34962
		},
		{
			"buffer":0,
			"byteLength":80688,
			"byteOffset":2603196,
			"target":34962
		},
		{
			"buffer":0,
			"byteLength":53792,
			"byteOffset":2683884,
			"target":34962
		},
		{
			"buffer":0,
			"byteLength":23304,
			"byteOffset":2737676,
			"target":34963
		}
	],
	"buffers":[
		{
			"byteLength":2760980,
			"uri":"chanelperfume1.bin"
		}
	]
}
